<svg width="30" height="44" viewBox="0 0 30 44" fill="none" xmlns="http://www.w3.org/2000/svg">
<path d="M29.2913 10.8387C29.1363 10.2577 28.8215 9.63868 28.5886 9.0967C25.8021 2.39998 19.7135 0 14.7974 0C8.21615 0 0.967725 4.41298 -1.23593e-07 13.5092V15.3676C-1.23593e-07 15.4451 0.0267293 16.1418 0.0646972 16.4903C0.607182 20.8253 4.02784 25.4325 6.58252 29.7675C9.33099 34.4121 12.1829 38.981 15.0085 43.548C16.7507 40.5676 18.4867 37.5481 20.1893 34.6449C20.6533 33.7929 21.192 32.9414 21.6565 32.1282C21.9661 31.5868 22.5576 31.0453 22.8278 30.5415C25.5762 25.5096 30 20.4388 30 15.445V13.3936C30.0001 12.8522 29.329 10.9554 29.2913 10.8387ZM14.9178 20.1678C12.9833 20.1678 10.8658 19.2005 9.82062 16.5291C9.6649 16.1039 9.67746 15.2517 9.67746 15.1736V13.9736C9.67746 10.568 12.5691 9.01935 15.0847 9.01935C18.1817 9.01935 20.5769 11.4971 20.5769 14.594C20.5769 17.6909 18.0148 20.1678 14.9178 20.1678Z" fill="white"/>
</svg>
