<svg width="30" height="31" viewBox="0 0 30 31" fill="none" xmlns="http://www.w3.org/2000/svg">
<path d="M10.8361 16.9262C10.8361 16.5418 10.5244 16.2305 10.1397 16.2305H7.70967C7.32547 16.2305 7.01367 16.5418 7.01367 16.9262V19.3559C7.01367 19.7407 7.32547 20.0522 7.70967 20.0522H10.1397C10.5244 20.0522 10.8361 19.7407 10.8361 19.3559V16.9262Z" fill="white"/>
<path d="M16.91 16.9262C16.91 16.5418 16.5982 16.2305 16.2143 16.2305H13.7839C13.3997 16.2305 13.0879 16.5418 13.0879 16.9262V19.3559C13.0879 19.7407 13.3997 20.0522 13.7839 20.0522H16.2143C16.5982 20.0522 16.91 19.7407 16.91 19.3559V16.9262Z" fill="white"/>
<path d="M22.9855 16.9262C22.9855 16.5418 22.6737 16.2305 22.2895 16.2305H19.8595C19.4748 16.2305 19.1631 16.5418 19.1631 16.9262V19.3559C19.1631 19.7407 19.4748 20.0522 19.8595 20.0522H22.2895C22.6737 20.0522 22.9855 19.7407 22.9855 19.3559V16.9262Z" fill="white"/>
<path d="M10.8361 22.9998C10.8361 22.6148 10.5244 22.3037 10.1397 22.3037H7.70967C7.32547 22.3037 7.01367 22.6148 7.01367 22.9998V25.4291C7.01367 25.8137 7.32547 26.1251 7.70967 26.1251H10.1397C10.5244 26.1251 10.8361 25.8136 10.8361 25.4291V22.9998Z" fill="white"/>
<path d="M16.91 22.9998C16.91 22.6148 16.5982 22.3037 16.2143 22.3037H13.7839C13.3997 22.3037 13.0879 22.6148 13.0879 22.9998V25.4291C13.0879 25.8137 13.3997 26.1251 13.7839 26.1251H16.2143C16.5982 26.1251 16.91 25.8136 16.91 25.4291V22.9998Z" fill="white"/>
<path d="M22.9855 22.9998C22.9855 22.6148 22.6737 22.3037 22.2899 22.3037H19.8595C19.4748 22.3037 19.1631 22.6148 19.1631 22.9998V25.4291C19.1631 25.8137 19.4748 26.1251 19.8595 26.1251H22.2899C22.6737 26.1251 22.9855 25.8136 22.9855 25.4291V22.9998Z" fill="white"/>
<path d="M27.3297 3.41603V7.1273C27.3297 8.80476 25.9689 10.1565 24.2917 10.1565H22.3752C20.6979 10.1565 19.319 8.80476 19.319 7.1273V3.40271H10.681V7.1273C10.681 8.80476 9.30218 10.1565 7.6251 10.1565H5.70825C4.03111 10.1565 2.67035 8.80476 2.67035 7.1273V3.41603C1.20451 3.46022 -1.41454e-08 4.67315 -1.41454e-08 6.16401V27.9138C-1.41454e-08 29.4327 1.2311 30.6801 2.74998 30.6801H27.25C28.7666 30.6801 30 29.4301 30 27.9138V6.16401C30 4.67315 28.7956 3.46022 27.3297 3.41603ZM26.4396 26.5594C26.4396 27.2158 25.9074 27.7483 25.2507 27.7483H4.69694C4.04029 27.7483 3.50808 27.2158 3.50808 26.5594V15.3248C3.50808 14.6682 4.04022 14.1357 4.69694 14.1357H25.2506C25.9073 14.1357 26.4395 14.6682 26.4395 15.3248L26.4396 26.5594Z" fill="white"/>
<path d="M5.70305 8.16699H7.59872C8.17411 8.16699 8.64064 7.70115 8.64064 7.12576V1.04161C8.64064 0.466156 8.17411 0 7.59872 0H5.70305C5.1276 0 4.66113 0.466156 4.66113 1.04161V7.12576C4.66113 7.70115 5.1276 8.16699 5.70305 8.16699Z" fill="white"/>
<path d="M22.3514 8.16699H24.2471C24.8221 8.16699 25.2886 7.70115 25.2886 7.12576V1.04161C25.2887 0.466156 24.8222 0 24.2471 0H22.3514C21.7761 0 21.3096 0.466156 21.3096 1.04161V7.12576C21.3096 7.70115 21.7761 8.16699 22.3514 8.16699Z" fill="white"/>
</svg>
