<svg width="30" height="30" viewBox="0 0 30 30" fill="none" xmlns="http://www.w3.org/2000/svg">
<path d="M14.9998 0C6.71571 0 0 6.71591 0 14.9998C0 23.2836 6.71571 30.0003 14.9998 30.0003C23.2838 30.0003 30 23.2839 30 14.9998C30 6.71561 23.2839 0 14.9998 0ZM16.0357 16.834C16.0349 16.8734 16.029 16.9128 16.0235 16.9523C16.0196 16.9819 16.0178 17.0122 16.0111 17.0413C16.0044 17.0716 15.9929 17.1015 15.9831 17.1318C15.9714 17.1684 15.9605 17.2049 15.9452 17.2394C15.9423 17.2454 15.9413 17.2518 15.9387 17.2578C15.9161 17.306 15.8899 17.3512 15.8612 17.394C15.8594 17.3966 15.857 17.3992 15.8552 17.4018C15.8225 17.4498 15.7852 17.4934 15.746 17.5343C15.7351 17.5455 15.724 17.5556 15.7125 17.5662C15.678 17.5991 15.6417 17.6292 15.6031 17.6567C15.5912 17.6653 15.5798 17.6743 15.5673 17.6826C15.5178 17.715 15.4659 17.7435 15.4119 17.7669C15.4002 17.7721 15.388 17.7752 15.3761 17.7799C15.3305 17.7975 15.2843 17.8121 15.2366 17.8232C15.2195 17.8273 15.2026 17.831 15.1852 17.8341C15.124 17.8453 15.062 17.853 14.9992 17.853C14.9865 17.853 14.9734 17.8491 14.9607 17.8486C14.9005 17.8463 14.8409 17.8416 14.7836 17.8294C14.7657 17.8255 14.7481 17.8177 14.7302 17.8128C14.6768 17.7983 14.6246 17.7822 14.5748 17.7599C14.5691 17.757 14.5631 17.7565 14.5574 17.7539L8.80585 15.041C8.28764 14.7966 8.06563 14.1783 8.30994 13.6601C8.55424 13.1422 9.17255 12.9199 9.69076 13.1642L13.9624 15.1787V6.225C13.9624 5.65209 14.4269 5.18759 14.9998 5.18759C15.5728 5.18759 16.0373 5.65209 16.0373 6.225V16.8153H16.0375C16.0375 16.8215 16.0357 16.8277 16.0357 16.834Z" fill="white"/>
</svg>
