<svg width="98" height="84" viewBox="0 0 98 84" fill="none" xmlns="http://www.w3.org/2000/svg">
<path d="M74.1841 9.15214C74.1841 9.70807 74.1841 10.0894 74.1841 10.4707C74.1841 18.4461 74.1841 26.418 74.1841 34.3934C74.1632 40.3905 72.0086 46.1844 68.106 50.738C64.2034 55.2916 58.8075 58.3076 52.8842 59.2462C39.3424 61.42 26.1926 51.8338 24.1898 38.2849C23.9566 36.5606 23.8458 34.8219 23.8584 33.082C23.8228 25.5734 23.8584 18.0612 23.8192 10.5527C23.8192 9.43723 24.115 9.1272 25.2447 9.1272C41.1147 9.16521 56.986 9.17471 72.8584 9.15571L74.1841 9.15214ZM28.4412 13.8383C28.4412 20.6092 28.4127 27.2162 28.4626 33.8303C28.474 35.4135 28.6267 36.9925 28.9188 38.5486C29.4305 41.2568 30.5462 43.8148 32.1831 46.0322C36.8586 43.11 41.4485 40.2377 46.0385 37.3726C53.4817 32.7375 60.9309 28.1036 68.3861 23.4708C69.2164 22.9577 69.6476 22.4231 69.5977 21.3683C69.4943 19.2836 69.5692 17.1917 69.5621 15.1034C69.5621 14.6936 69.5086 14.2838 69.4801 13.8455L28.4412 13.8383ZM35.0696 49.2965C40.0409 54.2856 48.4796 56.5343 56.3125 53.5729C64.5088 50.4868 68.6676 42.9853 69.1202 38.0746L50.7282 49.5103L47.5673 46.3494C47.8381 46.1712 48.1232 45.993 48.4154 45.797C55.1483 41.6133 61.8789 37.4272 68.607 33.2388C68.9634 33.0249 69.4694 32.7149 69.4872 32.4263C69.5763 30.958 69.53 29.4827 69.53 27.7935L35.0696 49.2965Z" fill="white"/>
<path d="M39.8095 3.5536C39.7769 4.44329 39.3995 5.28542 38.7571 5.90183C38.1148 6.51823 37.2578 6.86057 36.3675 6.8564C35.4772 6.85223 34.6235 6.50189 33.9869 5.8795C33.3503 5.25711 32.9808 4.41148 32.9566 3.52153C32.9441 3.06229 33.024 2.60523 33.1916 2.17749C33.3592 1.74975 33.6111 1.36006 33.9323 1.03158C34.2534 0.703088 34.6373 0.442502 35.0612 0.265298C35.485 0.0880938 35.9402 -0.00211252 36.3996 3.75494e-05C36.859 0.00218762 37.3133 0.0966503 37.7354 0.277814C38.1576 0.458977 38.5391 0.723146 38.8571 1.05463C39.1752 1.38611 39.4234 1.77813 39.587 2.20742C39.7506 2.63671 39.8263 3.0945 39.8095 3.5536Z" fill="white"/>
<path d="M61.6508 6.89286C61.1951 6.89765 60.743 6.81125 60.3212 6.63874C59.8993 6.46623 59.5163 6.21109 59.1945 5.88834C58.8728 5.56559 58.6188 5.18174 58.4476 4.75939C58.2764 4.33703 58.1914 3.8847 58.1976 3.429C58.2264 2.5319 58.6031 1.68118 59.2478 1.05678C59.8926 0.432375 60.755 0.083252 61.6526 0.083252C62.5501 0.083252 63.4125 0.432375 64.0573 1.05678C64.7021 1.68118 65.0787 2.5319 65.1075 3.429C65.1127 3.88474 65.027 4.33693 64.8552 4.75908C64.6834 5.18123 64.4291 5.56485 64.1072 5.88746C63.7852 6.21006 63.4021 6.46516 62.9803 6.6378C62.5585 6.81044 62.1065 6.89716 61.6508 6.89286Z" fill="white"/>
<path d="M53.5507 6.90692H44.3565L49.0142 0.0219727L53.5507 6.90692Z" fill="white"/>
<path d="M34.1898 18.1609H39.5352C39.5352 20.7338 39.4532 23.2426 39.5851 25.7407C39.6874 26.595 40.0623 27.3935 40.6542 28.0179C41.285 28.7057 42.265 28.7128 43.1487 28.2781C43.5967 28.0836 43.9761 27.7593 44.2379 27.347C44.4996 26.9347 44.6317 26.4534 44.617 25.9653C44.617 23.4137 44.617 20.8621 44.617 18.1965H50.0087C50.0087 18.9093 50.0087 19.622 50.0087 20.3347C49.9517 22.7687 50.1156 25.2347 49.7593 27.6259C49.2069 31.3606 45.5542 34.1082 41.8444 33.9335C37.8603 33.7411 34.4677 30.6978 34.2111 26.8205C34.0472 23.9732 34.1898 21.108 34.1898 18.1609Z" fill="white"/>
<path d="M5.42742 77.3707C6.77447 77.3707 7.70815 76.4549 7.70815 74.9403V68.1694H10.7551V74.9403C10.7551 78.0193 8.69171 79.9686 5.4096 79.9686C2.12749 79.9686 0 78.0193 0 74.9403V68.1694H3.04691V74.9403C3.04691 76.4406 4.04473 77.3707 5.42742 77.3707Z" fill="white"/>
<path d="M23.5199 74.1456V79.8475H20.5727V75.008C20.5727 73.9924 19.9741 73.3616 19.0404 73.3616C18.0426 73.3616 17.394 74.0744 17.2586 75.0757V79.8475H14.3114V70.8315H17.2728V72.2961C17.5817 71.7893 18.0213 71.375 18.5455 71.0966C19.0697 70.8182 19.6591 70.686 20.252 70.7139C22.2191 70.7139 23.5199 72.0467 23.5199 74.1456Z" fill="white"/>
<path d="M29.9737 70.8313V79.8474H27.0266V70.8313H29.9737ZM29.8561 68.3012C29.8526 68.5668 29.7706 68.8255 29.6205 69.0446C29.4704 69.2638 29.2588 69.4337 29.0124 69.5329C28.7659 69.6321 28.4957 69.6563 28.2355 69.6023C27.9754 69.5483 27.7371 69.4187 27.5505 69.2296C27.3638 69.0405 27.2373 68.8005 27.1868 68.5397C27.1362 68.2789 27.1639 68.0089 27.2664 67.7638C27.3688 67.5187 27.5415 67.3094 27.7626 67.1621C27.9837 67.0149 28.2434 66.9363 28.5091 66.9363C28.6891 66.9302 28.8685 66.9615 29.0359 67.0281C29.2033 67.0948 29.355 67.1954 29.4816 67.3236C29.6082 67.4519 29.7068 67.6049 29.7712 67.7732C29.8357 67.9414 29.8646 68.1212 29.8561 68.3012Z" fill="white"/>
<path d="M35.565 70.8315L37.4466 77.0893L39.3425 70.8315H42.3039L38.9291 79.8475H35.8822L32.5181 70.8315H35.565Z" fill="white"/>
<path d="M53.0232 76.1236H46.7654C46.8666 76.5877 47.1283 77.0013 47.5044 77.2914C47.8806 77.5815 48.3471 77.7295 48.8217 77.7094C49.217 77.7044 49.6074 77.6209 49.9702 77.4636C50.333 77.3064 50.6609 77.0786 50.9349 76.7935L52.4815 78.3401C51.5657 79.3736 50.2186 79.9367 48.5615 79.9367C45.6144 79.9367 43.8005 78.1228 43.8005 75.3752C43.8005 72.6276 45.6821 70.7425 48.4938 70.7425C51.6262 70.7318 53.2263 72.845 53.0232 76.1236ZM50.1723 74.5413C50.19 74.3151 50.1597 74.0877 50.0833 73.8741C50.0069 73.6604 49.8861 73.4654 49.7289 73.3018C49.5717 73.1382 49.3816 73.0097 49.1712 72.9249C48.9608 72.84 48.7348 72.8006 48.5081 72.8094C47.5423 72.8094 46.9115 73.5221 46.7262 74.5413H50.1723Z" fill="white"/>
<path d="M59.0994 67.4854V79.8476H56.138V67.4854H59.0994Z" fill="white"/>
<path d="M66.9964 73.1763C65.9273 73.1763 65.2145 74.0601 65.2145 75.3572C65.2145 76.6544 65.9451 77.5382 66.9964 77.5382C67.3604 77.5636 67.7239 77.4807 68.0409 77.3C68.358 77.1192 68.6145 76.8488 68.7782 76.5226L70.9591 77.7698C70.2464 79.1525 68.7782 79.933 66.8645 79.933C64.0849 79.933 62.2318 78.1191 62.2318 75.3715C62.2318 72.6239 64.0956 70.7388 66.893 70.7388C68.7069 70.7388 70.1395 71.5228 70.9199 72.877L68.7817 74.1242C68.5905 73.8263 68.3258 73.5827 68.0131 73.4166C67.7004 73.2506 67.3503 73.1679 66.9964 73.1763Z" fill="white"/>
<path d="M76.7394 70.8315V79.8475H73.7923V70.8315H76.7394ZM76.6218 68.3013C76.6183 68.5669 76.5363 68.8256 76.3862 69.0448C76.236 69.2639 76.0244 69.4338 75.778 69.533C75.5316 69.6323 75.2613 69.6564 75.0012 69.6024C74.7411 69.5485 74.5027 69.4188 74.3161 69.2297C74.1295 69.0406 74.003 68.8006 73.9524 68.5398C73.9019 68.279 73.9296 68.0091 74.032 67.764C74.1345 67.5188 74.3071 67.3095 74.5282 67.1623C74.7494 67.015 75.0091 66.9364 75.2747 66.9364C75.4545 66.9308 75.6335 66.9625 75.8005 67.0294C75.9674 67.0962 76.1187 67.1969 76.2449 67.3251C76.3711 67.4533 76.4694 67.6062 76.5336 67.7742C76.5979 67.9422 76.6267 68.1216 76.6182 68.3013H76.6218Z" fill="white"/>
<path d="M86.3612 79.3699C85.6157 79.7741 84.7789 79.9802 83.9308 79.9686C82.1847 79.9686 80.9196 78.9529 80.9196 77.0892V73.2262H79.6723V71.2626H80.9196V68.7681H83.8667V71.2626H86.1973V73.2262H83.8667V76.6401C83.8667 77.3065 84.166 77.6059 84.6828 77.5881C85.07 77.5589 85.4484 77.4573 85.7982 77.2887L86.3612 79.3699Z" fill="white"/>
<path d="M90.6018 83.1974C89.6323 83.2085 88.6899 82.878 87.9398 82.2637L89.1728 80.2146C89.495 80.5254 89.9225 80.7035 90.3702 80.7135C90.596 80.7178 90.818 80.655 91.0083 80.5333C91.1986 80.4115 91.3485 80.2361 91.4392 80.0293L91.6566 79.6123L87.9398 70.8315H90.9867L93.1249 76.6902L95.0385 70.8315H97.9999L94.1369 80.7171C93.4491 82.3991 92.2981 83.1974 90.6018 83.1974Z" fill="white"/>
</svg>
