<svg width="40" height="41" viewBox="0 0 40 41" fill="none" xmlns="http://www.w3.org/2000/svg">
<path d="M39.8011 0.198819C39.536 -0.066273 39.1075 -0.066273 38.8424 0.198819L36.3291 2.71211H20.5436L0.69968 22.7201C-0.233227 23.653 -0.233227 25.1704 0.69968 26.1033L14.5753 39.9789C15.0262 40.4304 15.6275 40.6793 16.2669 40.6793C16.9062 40.6793 17.5069 40.4304 17.9652 39.9721L37.2885 20.1268V3.67078L39.8018 1.15749C40.0662 0.892398 40.0662 0.463911 39.8011 0.198819ZM29.83 13.5599C27.9608 13.5599 26.4401 12.0391 26.4401 10.1699C26.4401 8.30074 27.9608 6.78002 29.83 6.78002C31.6992 6.78002 33.2199 8.30074 33.2199 10.1699C33.2199 12.0391 31.6992 13.5599 29.83 13.5599Z" fill="white"/>
</svg>
