<svg width="56" height="57" viewBox="0 0 56 57" fill="none" xmlns="http://www.w3.org/2000/svg">
<path d="M45.2825 16.27C45.8865 16.27 46.3763 15.7803 46.3763 15.1762V3.28134C46.3763 1.47201 44.9042 0 43.0949 0H3.28134C1.47201 0 0 1.47201 0 3.28134V52.7202C0 54.5295 1.47201 56.0015 3.28134 56.0015H43.0949C44.9042 56.0015 46.3763 54.5295 46.3763 52.7202V44.6621C46.3763 44.058 45.8865 43.5683 45.2825 43.5683C44.6785 43.5683 44.1887 44.058 44.1887 44.6621V52.7202C44.1887 53.3233 43.698 53.814 43.0949 53.814H3.28134C2.67823 53.814 2.18756 53.3233 2.18756 52.7202V3.28134C2.18756 2.67823 2.67823 2.18756 3.28134 2.18756H43.0949C43.698 2.18756 44.1887 2.67823 44.1887 3.28134V15.1762C44.1887 15.7803 44.6785 16.27 45.2825 16.27Z" fill="white"/>
<path d="M30.6254 30.1703H15.0938C14.4898 30.1703 14 30.66 14 31.2641C14 31.8682 14.4898 32.3579 15.0938 32.3579H30.6254C31.2294 32.3579 31.7192 31.8682 31.7192 31.2641C31.7192 30.66 31.2294 30.1703 30.6254 30.1703Z" fill="white"/>
<path d="M30.6254 24.0452H15.0938C14.4898 24.0452 14 24.5349 14 25.1389C14 25.743 14.4898 26.2327 15.0938 26.2327H30.6254C31.2294 26.2327 31.7192 25.743 31.7192 25.1389C31.7192 24.5349 31.2294 24.0452 30.6254 24.0452Z" fill="white"/>
<path d="M30.6254 17.92H15.0938C14.4898 17.92 14 18.4097 14 19.0138C14 19.6179 14.4898 20.1076 15.0938 20.1076H30.6254C31.2294 20.1076 31.7192 19.6179 31.7192 19.0138C31.7192 18.4097 31.2294 17.92 30.6254 17.92Z" fill="white"/>
<path d="M53.7039 14.2541C52.6413 13.6406 51.4034 13.4777 50.2179 13.7952C49.0327 14.1128 48.042 14.873 47.4286 15.9356L33.6642 39.776C33.5889 39.9067 33.5412 40.0516 33.5245 40.2015L32.5556 48.88C32.5075 49.3118 32.7194 49.7313 33.0957 49.9487C33.2656 50.0466 33.4542 50.0952 33.6425 50.0952C33.8713 50.0952 34.0992 50.0236 34.2912 49.8821L41.3224 44.7038C41.444 44.6143 41.5457 44.5006 41.621 44.3699L55.3853 20.5296C56.6519 18.3359 55.8976 15.5207 53.7039 14.2541ZM35.007 46.6381L35.5129 42.1064L38.6786 43.9341L35.007 46.6381ZM40.2735 42.3288L36.1057 39.9225L47.1512 20.7912L51.319 23.1975L40.2735 42.3288ZM53.4909 19.4357L52.4127 21.3031L48.2449 18.8968L49.323 17.0294C49.6444 16.4728 50.1632 16.0746 50.7841 15.9083C51.4051 15.7418 52.0535 15.8273 52.61 16.1487C53.1667 16.47 53.5648 16.9889 53.7312 17.6097C53.8975 18.2306 53.8122 18.8791 53.4909 19.4357Z" fill="white"/>
</svg>
